name Walk6.mot
datacolumns 19
datarows 20
range 1.54500000 1.56400000
endheader

                time	   L_ground_force_vx	   L_ground_force_vy	   L_ground_force_vz	   L_ground_force_px	   L_ground_force_py	   L_ground_force_pz	   R_ground_force_vx	   R_ground_force_vy	   R_ground_force_vz	   R_ground_force_px	   R_ground_force_py	   R_ground_force_pz	   L_ground_torque_x	   L_ground_torque_y	   L_ground_torque_z	   R_ground_torque_x	   R_ground_torque_y	   R_ground_torque_z	
          1.54500000	        -11.32174790	        429.85548591	        -35.49108419	          0.23931689	          0.00000000	          0.12868869	          0.00000000	          0.00000000	          0.00000000	          0.00000000	          0.00000000	          0.00000000	          0.00000000	          6.80218741	          0.00000000	          0.00000000	          0.00000000	          0.00000000	
          1.54600000	        -11.36114611	        428.27478487	        -35.34623899	          0.24024740	          0.00000000	          0.12863758	          0.00000000	          0.00000000	          0.00000000	          0.00000000	          0.00000000	          0.00000000	          0.00000000	          6.77288091	          0.00000000	          0.00000000	          0.00000000	          0.00000000	
          1.54700000	        -11.37858218	        426.73045095	        -35.18479545	          0.24113010	          0.00000000	          0.12860574	          0.00000000	          0.00000000	          0.00000000	          0.00000000	          0.00000000	          0.00000000	          0.00000000	          6.73494163	          0.00000000	          0.00000000	          0.00000000	          0.00000000	
          1.54800000	        -11.38005379	        425.30587745	        -35.01225095	          0.24203958	          0.00000000	          0.12864305	          0.00000000	          0.00000000	          0.00000000	          0.00000000	          0.00000000	          0.00000000	          0.00000000	          6.68388260	          0.00000000	          0.00000000	          0.00000000	          0.00000000	
          1.54900000	        -11.36867578	        424.06102313	        -34.83844856	          0.24300569	          0.00000000	          0.12876230	          0.00000000	          0.00000000	          0.00000000	          0.00000000	          0.00000000	          0.00000000	          0.00000000	          6.61941990	          0.00000000	          0.00000000	          0.00000000	          0.00000000	
          1.55000000	        -11.34003242	        422.99339827	        -34.67743165	          0.24401540	          0.00000000	          0.12892271	          0.00000000	          0.00000000	          0.00000000	          0.00000000	          0.00000000	          0.00000000	          0.00000000	          6.54691276	          0.00000000	          0.00000000	          0.00000000	          0.00000000	
          1.55100000	        -11.29188628	        422.05303492	        -34.54395067	          0.24504089	          0.00000000	          0.12906192	          0.00000000	          0.00000000	          0.00000000	          0.00000000	          0.00000000	          0.00000000	          0.00000000	          6.47598780	          0.00000000	          0.00000000	          0.00000000	          0.00000000	
          1.55200000	        -11.22988423	        421.17396090	        -34.44216798	          0.24604555	          0.00000000	          0.12913636	          0.00000000	          0.00000000	          0.00000000	          0.00000000	          0.00000000	          0.00000000	          0.00000000	          6.41375096	          0.00000000	          0.00000000	          0.00000000	          0.00000000	
          1.55300000	        -11.16412450	        420.28899970	        -34.36232320	          0.24696945	          0.00000000	          0.12913803	          0.00000000	          0.00000000	          0.00000000	          0.00000000	          0.00000000	          0.00000000	          0.00000000	          6.36177375	          0.00000000	          0.00000000	          0.00000000	          0.00000000	
          1.55400000	        -11.09863398	        419.35304006	        -34.28400501	          0.24775148	          0.00000000	          0.12909508	          0.00000000	          0.00000000	          0.00000000	          0.00000000	          0.00000000	          0.00000000	          0.00000000	          6.31861651	          0.00000000	          0.00000000	          0.00000000	          0.00000000	
          1.55500000	        -11.02387182	        418.36103955	        -34.17969254	          0.24837383	          0.00000000	          0.12904893	          0.00000000	          0.00000000	          0.00000000	          0.00000000	          0.00000000	          0.00000000	          0.00000000	          6.28029000	          0.00000000	          0.00000000	          0.00000000	          0.00000000	
          1.55600000	        -10.93003511	        417.35492866	        -34.02459604	          0.24887719	          0.00000000	          0.12903099	          0.00000000	          0.00000000	          0.00000000	          0.00000000	          0.00000000	          0.00000000	          0.00000000	          6.23940024	          0.00000000	          0.00000000	          0.00000000	          0.00000000	
          1.55700000	        -10.82430802	        416.41272600	        -33.81312637	          0.24934232	          0.00000000	          0.12905827	          0.00000000	          0.00000000	          0.00000000	          0.00000000	          0.00000000	          0.00000000	          0.00000000	          6.18985426	          0.00000000	          0.00000000	          0.00000000	          0.00000000	
          1.55800000	        -10.72438231	        415.59251684	        -33.56754536	          0.24985696	          0.00000000	          0.12911770	          0.00000000	          0.00000000	          0.00000000	          0.00000000	          0.00000000	          0.00000000	          0.00000000	          6.13335942	          0.00000000	          0.00000000	          0.00000000	          0.00000000	
          1.55900000	        -10.64446428	        414.89655002	        -33.32485129	          0.25048079	          0.00000000	          0.12916652	          0.00000000	          0.00000000	          0.00000000	          0.00000000	          0.00000000	          0.00000000	          0.00000000	          6.07626765	          0.00000000	          0.00000000	          0.00000000	          0.00000000	
          1.56000000	        -10.59062113	        414.30414791	        -33.11512644	          0.25120750	          0.00000000	          0.12917793	          0.00000000	          0.00000000	          0.00000000	          0.00000000	          0.00000000	          0.00000000	          0.00000000	          6.02224657	          0.00000000	          0.00000000	          0.00000000	          0.00000000	
          1.56100000	        -10.55834391	        413.80651265	        -32.95141143	          0.25197435	          0.00000000	          0.12917114	          0.00000000	          0.00000000	          0.00000000	          0.00000000	          0.00000000	          0.00000000	          0.00000000	          5.97223353	          0.00000000	          0.00000000	          0.00000000	          0.00000000	
          1.56200000	        -10.54015589	        413.41001863	        -32.83309280	          0.25274884	          0.00000000	          0.12918918	          0.00000000	          0.00000000	          0.00000000	          0.00000000	          0.00000000	          0.00000000	          0.00000000	          5.92555364	          0.00000000	          0.00000000	          0.00000000	          0.00000000	
          1.56300000	        -10.53607784	        413.11971097	        -32.75380642	          0.25355644	          0.00000000	          0.12926241	          0.00000000	          0.00000000	          0.00000000	          0.00000000	          0.00000000	          0.00000000	          0.00000000	          5.87941598	          0.00000000	          0.00000000	          0.00000000	          0.00000000	
          1.56400000	        -10.53946604	        412.90682785	        -32.69909931	          0.25439163	          0.00000000	          0.12938822	          0.00000000	          0.00000000	          0.00000000	          0.00000000	          0.00000000	          0.00000000	          0.00000000	          5.83370745	          0.00000000	          0.00000000	          0.00000000	          0.00000000	
